<?xml version="1.0" standalone="no"?>
<!DOCTYPE svg PUBLIC "-//W3C//DTD SVG 20010904//EN"
 "http://www.w3.org/TR/2001/REC-SVG-20010904/DTD/svg10.dtd">
<svg version="1.0" xmlns="http://www.w3.org/2000/svg"
 width="512.000000pt" height="512.000000pt" viewBox="0 0 512.000000 512.000000"
 preserveAspectRatio="xMidYMid meet">

<g transform="translate(0.000000,512.000000) scale(0.100000,-0.100000)"
fill="#000000" stroke="none">
<path d="M495 4776 c-397 -92 -608 -530 -430 -891 77 -155 212 -271 380 -327
101 -33 269 -33 374 1 195 64 347 217 413 416 33 100 33 270 0 370 -65 195
-211 345 -404 412 -90 31 -242 40 -333 19z"/>
<path d="M1949 4612 c-130 -34 -239 -124 -299 -246 -130 -264 16 -584 299
-658 61 -15 172 -17 1402 -17 856 -1 1356 3 1390 9 187 35 342 197 372 389 37
245 -131 486 -372 531 -34 6 -534 10 -1390 9 -1230 0 -1341 -2 -1402 -17z"/>
<path d="M495 3176 c-397 -92 -608 -530 -430 -891 77 -155 212 -271 380 -327
101 -33 269 -33 374 1 195 64 347 217 413 416 33 100 33 270 0 370 -65 195
-211 345 -404 412 -90 31 -242 40 -333 19z"/>
<path d="M1949 3012 c-130 -34 -239 -124 -299 -246 -130 -264 16 -584 299
-658 61 -15 172 -17 1402 -17 856 -1 1356 3 1390 9 187 35 342 197 372 389 37
245 -131 486 -372 531 -34 6 -534 10 -1390 9 -1230 0 -1341 -2 -1402 -17z"/>
<path d="M495 1576 c-397 -92 -608 -530 -430 -891 77 -155 212 -271 380 -327
101 -33 269 -33 374 1 195 64 347 217 413 416 33 100 33 270 0 370 -65 195
-211 345 -404 412 -90 31 -242 40 -333 19z"/>
<path d="M1949 1412 c-130 -34 -239 -124 -299 -246 -130 -264 16 -584 299
-658 61 -15 172 -17 1402 -17 856 -1 1356 3 1390 9 187 35 342 197 372 389 37
245 -131 486 -372 531 -34 6 -534 10 -1390 9 -1230 0 -1341 -2 -1402 -17z"/>
</g>
</svg>
