<svg xmlns="http://www.w3.org/2000/svg" version="1.1" xmlns:xlink="http://www.w3.org/1999/xlink" xmlns:svgjs="http://svgjs.dev/svgjs" width="1411" height="553" preserveAspectRatio="none" viewBox="0 0 1411 553"><g mask="url(&quot;#SvgjsMask6329&quot;)" fill="none"><rect width="1411" height="553" x="0" y="0" fill="rgba(237, 251, 255, 1)"></rect><use xlink:href="#SvgjsG6337" transform="translate(0, 0)" fill="rgba(19, 87, 149, 1)"></use></g><defs><mask id="SvgjsMask6329"><rect width="1411" height="553" fill="#ffffff"></rect></mask><g id="SvgjsG6330"><path d="M6.498 9.304L12.139 3.663l1.565 1.566-5.641 5.641z"></path><path d="M6.8 0.457h2.541v8.028H6.8z"></path><path d="M8.072 10.876L2.429 5.238l1.563-1.566L9.636 9.313zM1.2 13.277h13.733v2.266H1.2z"></path><path d="M0.733 9.143h2.267v6.4h-2.267z m12.267 0h2.267v6.4h-2.267z"></path></g><g id="SvgjsG6331"><path d="M7.713 15.485C3.459 15.485 0 12.025 0 7.768 0 3.513 3.459 0.051 7.713 0.051S15.432 3.513 15.432 7.768c0 4.257-3.465 7.716-7.719 7.717z m0-1.91c3.201 0 5.81-2.604 5.81-5.809 0-3.199-2.61-5.807-5.81-5.807-3.202 0-5.804 2.609-5.804 5.807-0.001 3.206 2.602 5.809 5.804 5.809z"></path><path d="M7.753 8.787a0.574 0.574 0 0 1-0.554-0.042 0.578 0.578 0 0 1-0.259-0.399L6.931 3.862a0.58 0.58 0 0 1 1.162 0v3.478l2.975-1.4a0.578 0.578 0 0 1 0.773 0.275c0.138 0.292 0.011 0.637-0.276 0.774l-3.81 1.798z"></path></g><g id="SvgjsG6332"><path d="M15.233 9.431c0.295 0 0.569-0.239 0.61-0.532 0 0 0.056-0.411 0.056-0.899s-0.056-0.899-0.056-0.899c-0.041-0.292-0.315-0.531-0.61-0.53h-1.524c-0.295 0-0.602-0.188-0.681-0.418s-0.188-0.967 0.021-1.176l1.078-1.077c0.209-0.209 0.225-0.565 0.036-0.792l-1.268-1.268c-0.227-0.189-0.583-0.173-0.792 0.036l-1.078 1.077c-0.208 0.209-0.556 0.293-0.772 0.187s-0.822-0.552-0.821-0.847V0.767c0-0.295-0.239-0.569-0.531-0.61 0 0-0.411-0.057-0.9-0.056s-0.899 0.057-0.899 0.056c-0.293 0.04-0.532 0.315-0.532 0.61v1.524c0 0.295-0.188 0.601-0.418 0.681s-0.967 0.188-1.176-0.021l-1.078-1.078C3.689 1.665 3.333 1.649 3.107 1.837l-1.268 1.268c-0.189 0.227-0.173 0.583 0.036 0.792l1.077 1.078c0.209 0.209 0.293 0.556 0.187 0.772s-0.552 0.822-0.847 0.822H0.767c-0.295 0-0.569 0.239-0.61 0.531 0 0-0.057 0.411-0.056 0.899s0.057 0.899 0.056 0.9c0.04 0.293 0.315 0.532 0.61 0.532h1.525c0.295 0 0.601 0.188 0.681 0.417 0.079 0.23 0.188 0.967-0.02 1.176l-1.078 1.077C1.667 12.311 1.651 12.667 1.84 12.893l1.267 1.268c0.227 0.189 0.583 0.173 0.792-0.036l1.077-1.077c0.209-0.208 0.556-0.292 0.772-0.187s0.821 0.553 0.822 0.848v1.524c0 0.295 0.239 0.569 0.532 0.61 0 0 0.411 0.057 0.899 0.057s0.899-0.056 0.899-0.057c0.293-0.04 0.531-0.315 0.532-0.609v-1.524c0-0.295 0.188-0.602 0.418-0.681 0.23-0.079 0.967-0.188 1.176 0.021l1.077 1.077c0.209 0.209 0.565 0.225 0.792 0.036l1.268-1.267c0.189-0.227 0.173-0.583-0.036-0.792l-1.078-1.077c-0.209-0.209-0.293-0.557-0.186-0.773 0.106-0.216 0.552-0.822 0.847-0.822h1.525zM8 10.892c-1.597 0-2.891-1.294-2.891-2.892 0-1.596 1.295-2.891 2.891-2.891S10.892 6.404 10.892 8 9.597 10.892 8 10.892z"></path></g><g id="SvgjsG6333"><path d="M8.312 8.242l0 0.521c0.492-0.069 0.443-0.509 0-0.52v-0.001z m-0.51-0.627V7.155c-0.365 0.064-0.358 0.454 0 0.46z"></path><path d="M8.055 5.946c-1.128 0-2.044 0.915-2.044 2.043 0 1.129 0.915 2.044 2.045 2.044 1.129 0 2.043-0.915 2.043-2.044 0-1.128-0.915-2.043-2.043-2.043l-0.001 0z m0.251 3.336v0.364h-0.507v-0.37c-0.29-0.043-0.822-0.323-0.855-0.924h0.534c0.034 0.154 0.078 0.34 0.321 0.409l-0.001-0.605c-0.334-0.048-0.814-0.194-0.814-0.73 0-0.602 0.666-0.789 0.813-0.789v-0.364h0.502v0.364c0.338 0.02 0.83 0.302 0.829 0.84h-0.528c-0.014-0.16-0.137-0.317-0.296-0.327v0.554c0.403 0.041 0.877 0.195 0.877 0.738 0 0.473-0.475 0.818-0.877 0.84h0.002z"></path><path d="M0 11.93h16V4H0v7.93z m1.508-1.508V5.508h12.984V10.422H1.508z"></path></g><g id="SvgjsG6334"><path d="M2.704 7.28L5.136 3.232h-1.248L1.451 7.285v6.32h1.253V7.283zM12.083 7.285L14.515 3.229h-1.248l-2.432 4.056v6.32h1.248v-6.32z" fill-rule="evenodd"></path><path d="M11.205 4.064l-0.119 0.2H6.059l0.119-0.2 0.12-0.2h5.024l-0.119 0.2z m-0.448 0.752l-0.12 0.198h-5.024l0.117-0.2 0.12-0.201h5.024l-0.117 0.2z m-0.448 0.749l-0.12 0.2h-5.024l0.118-0.2 0.119-0.2h5.024l-0.119 0.2z m-0.451 0.749l-0.117 0.2h-5.024l0.118-0.199 0.12-0.2h5.024l-0.118 0.202zM5.781 3.216l-2.432 4.069h6.838L12.621 3.216H5.779z" fill-rule="evenodd"></path></g><g id="SvgjsG6335"><path d="M7.996 16h-0.001c-2.137-0.001-4.145-0.834-5.655-2.345C0.829 12.142-0.002 10.132 0 7.995-0.002 5.861 0.828 3.853 2.338 2.342 3.848 0.832 5.855 0 7.99 0h0.01C10.136 0 12.146 0.832 13.656 2.342c1.51 1.51 2.342 3.518 2.344 5.653-0.002 2.139-0.835 4.148-2.346 5.66-1.512 1.511-3.521 2.344-5.658 2.345z m-0.006-14.161c-1.644 0-3.189 0.64-4.351 1.804-1.162 1.163-1.801 2.708-1.8 4.352-0.001 1.648 0.639 3.196 1.802 4.359 1.163 1.164 2.709 1.805 4.354 1.807 3.398-0.002 6.163-2.768 6.167-6.166-0.002-3.394-2.765-6.155-6.16-6.155h-0.01z"></path><path d="M8.692 7.143V5.35c0.511 0.037 0.91 0.544 0.957 1.062h1.697c0.002-1.741-1.581-2.657-2.672-2.724v-1.175H7.056v1.175c-0.476 0.004-2.622 0.611-2.62 2.558-0.003 1.733 1.545 2.206 2.62 2.358v1.959c-0.783-0.222-0.926-0.824-1.036-1.323h-1.723c0.11 1.949 1.823 2.856 2.759 2.995v1.202h1.636v-1.184c1.294-0.07 2.827-1.187 2.829-2.716-0.002-1.758-1.529-2.256-2.829-2.393zM7.064 6.855c-1.152-0.018-1.175-1.281 0-1.488v1.488z m1.645 3.717V8.883c1.427 0.039 1.586 1.462 0 1.689z"></path></g><g id="SvgjsG6336"><path d="M1.396 3.591v6.948h-1.04A0.356 0.356 0 0 1 0 10.182V1.217C0 0.914 0.227 0.667 0.537 0.667h4.593C5.44 0.667 5.667 0.913 5.667 1.216v0.527h7.102c0.198 0 0.357 0.159 0.357 0.355v2.016h-6.064V3.587c0-0.303-0.226-0.549-0.537-0.55H1.933c-0.311 0-0.537 0.25-0.537 0.555z" fill-rule="evenodd"></path><path d="M15.918 14.746c0 0.197-0.159 0.355-0.357 0.355H3.149c-0.198 0-0.357-0.158-0.356-0.355V5.78c0-0.303 0.227-0.55 0.536-0.55h4.593c0.311 0 0.538 0.246 0.538 0.549v0.527h7.101c0.198 0 0.357 0.159 0.357 0.355v8.085z" fill-rule="evenodd"></path></g><g id="SvgjsG6337"><use xlink:href="#SvgjsG6330" transform="translate(0, 0) scale(3)" fill="rgba(19, 87, 149, 1)"></use><use xlink:href="#SvgjsG6331" transform="translate(0, 168) scale(3)" fill="rgba(19, 87, 149, 1)"></use><use xlink:href="#SvgjsG6332" transform="translate(0, 336) scale(3)" fill="rgba(19, 87, 149, 1)"></use><use xlink:href="#SvgjsG6333" transform="translate(0, 504) scale(3)" fill="rgba(19, 87, 149, 1)"></use><use xlink:href="#SvgjsG6331" transform="translate(168, 0) scale(3)" fill="rgba(19, 87, 149, 1)"></use><use xlink:href="#SvgjsG6332" transform="translate(168, 168) scale(3)" fill="rgba(19, 87, 149, 1)"></use><use xlink:href="#SvgjsG6333" transform="translate(168, 336) scale(3)" fill="rgba(19, 87, 149, 1)"></use><use xlink:href="#SvgjsG6334" transform="translate(168, 504) scale(3)" fill="rgba(19, 87, 149, 1)"></use><use xlink:href="#SvgjsG6332" transform="translate(336, 0) scale(3)" fill="rgba(19, 87, 149, 1)"></use><use xlink:href="#SvgjsG6333" transform="translate(336, 168) scale(3)" fill="rgba(19, 87, 149, 1)"></use><use xlink:href="#SvgjsG6334" transform="translate(336, 336) scale(3)" fill="rgba(19, 87, 149, 1)"></use><use xlink:href="#SvgjsG6335" transform="translate(336, 504) scale(3)" fill="rgba(19, 87, 149, 1)"></use><use xlink:href="#SvgjsG6333" transform="translate(504, 0) scale(3)" fill="rgba(19, 87, 149, 1)"></use><use xlink:href="#SvgjsG6334" transform="translate(504, 168) scale(3)" fill="rgba(19, 87, 149, 1)"></use><use xlink:href="#SvgjsG6335" transform="translate(504, 336) scale(3)" fill="rgba(19, 87, 149, 1)"></use><use xlink:href="#SvgjsG6336" transform="translate(504, 504) scale(3)" fill="rgba(19, 87, 149, 1)"></use><use xlink:href="#SvgjsG6334" transform="translate(672, 0) scale(3)" fill="rgba(19, 87, 149, 1)"></use><use xlink:href="#SvgjsG6335" transform="translate(672, 168) scale(3)" fill="rgba(19, 87, 149, 1)"></use><use xlink:href="#SvgjsG6336" transform="translate(672, 336) scale(3)" fill="rgba(19, 87, 149, 1)"></use><use xlink:href="#SvgjsG6330" transform="translate(672, 504) scale(3)" fill="rgba(19, 87, 149, 1)"></use><use xlink:href="#SvgjsG6335" transform="translate(840, 0) scale(3)" fill="rgba(19, 87, 149, 1)"></use><use xlink:href="#SvgjsG6336" transform="translate(840, 168) scale(3)" fill="rgba(19, 87, 149, 1)"></use><use xlink:href="#SvgjsG6330" transform="translate(840, 336) scale(3)" fill="rgba(19, 87, 149, 1)"></use><use xlink:href="#SvgjsG6331" transform="translate(840, 504) scale(3)" fill="rgba(19, 87, 149, 1)"></use><use xlink:href="#SvgjsG6336" transform="translate(1008, 0) scale(3)" fill="rgba(19, 87, 149, 1)"></use><use xlink:href="#SvgjsG6330" transform="translate(1008, 168) scale(3)" fill="rgba(19, 87, 149, 1)"></use><use xlink:href="#SvgjsG6331" transform="translate(1008, 336) scale(3)" fill="rgba(19, 87, 149, 1)"></use><use xlink:href="#SvgjsG6332" transform="translate(1008, 504) scale(3)" fill="rgba(19, 87, 149, 1)"></use><use xlink:href="#SvgjsG6330" transform="translate(1176, 0) scale(3)" fill="rgba(19, 87, 149, 1)"></use><use xlink:href="#SvgjsG6331" transform="translate(1176, 168) scale(3)" fill="rgba(19, 87, 149, 1)"></use><use xlink:href="#SvgjsG6332" transform="translate(1176, 336) scale(3)" fill="rgba(19, 87, 149, 1)"></use><use xlink:href="#SvgjsG6333" transform="translate(1176, 504) scale(3)" fill="rgba(19, 87, 149, 1)"></use><use xlink:href="#SvgjsG6331" transform="translate(1344, 0) scale(3)" fill="rgba(19, 87, 149, 1)"></use><use xlink:href="#SvgjsG6332" transform="translate(1344, 168) scale(3)" fill="rgba(19, 87, 149, 1)"></use><use xlink:href="#SvgjsG6333" transform="translate(1344, 336) scale(3)" fill="rgba(19, 87, 149, 1)"></use><use xlink:href="#SvgjsG6334" transform="translate(1344, 504) scale(3)" fill="rgba(19, 87, 149, 1)"></use></g></defs></svg>