<svg xmlns="http://www.w3.org/2000/svg" version="1.1" xmlns:xlink="http://www.w3.org/1999/xlink" xmlns:svgjs="http://svgjs.dev/svgjs" width="1440" height="600" preserveAspectRatio="none" viewBox="0 0 1440 600"><g mask="url(&quot;#SvgjsMask1528&quot;)" fill="none"><rect width="1440" height="600" x="0" y="0" fill="url(&quot;#SvgjsLinearGradient1529&quot;)"></rect><path d="M-84.48 399L-84.48 399" stroke="#132e65" stroke-width="1.5"></path><path d="M-84.48 399L-86.53 561.28" stroke="#132e65" stroke-width="1.5"></path><path d="M-84.48 399L92.18 358.92" stroke="#132e65" stroke-width="1.5"></path><path d="M-84.48 399L101.51 511.51" stroke="#132e65" stroke-width="1.5"></path><path d="M-84.48 399L-66.9 680.15" stroke="#132e65" stroke-width="1.5"></path><path d="M-84.48 399L253.88 410.82" stroke="#132e65" stroke-width="1.5"></path><path d="M-86.53 561.28L-86.53 561.28" stroke="#132e65" stroke-width="1.5"></path><path d="M-86.53 561.28L-66.9 680.15" stroke="#132e65" stroke-width="1.5"></path><path d="M-66.9 680.15L-66.9 680.15" stroke="#132e65" stroke-width="1.5"></path><path d="M92.18 358.92L92.18 358.92" stroke="#132e65" stroke-width="1.5"></path><path d="M92.18 358.92L101.51 511.51" stroke="#132e65" stroke-width="1.5"></path><path d="M92.18 358.92L253.88 410.82" stroke="#132e65" stroke-width="1.5"></path><path d="M101.51 511.51L101.51 511.51" stroke="#132e65" stroke-width="1.5"></path><path d="M101.51 511.51L234.48 552.69" stroke="#132e65" stroke-width="1.5"></path><path d="M101.51 511.51L253.88 410.82" stroke="#132e65" stroke-width="1.5"></path><path d="M101.51 511.51L-86.53 561.28" stroke="#132e65" stroke-width="1.5"></path><path d="M67.08 709.37L67.08 709.37" stroke="#132e65" stroke-width="1.5"></path><path d="M67.08 709.37L197.66 683.34" stroke="#132e65" stroke-width="1.5"></path><path d="M67.08 709.37L-66.9 680.15" stroke="#132e65" stroke-width="1.5"></path><path d="M67.08 709.37L101.51 511.51" stroke="#132e65" stroke-width="1.5"></path><path d="M67.08 709.37L-86.53 561.28" stroke="#132e65" stroke-width="1.5"></path><path d="M67.08 709.37L234.48 552.69" stroke="#132e65" stroke-width="1.5"></path><path d="M67.08 709.37L410.06 697.72" stroke="#132e65" stroke-width="1.5"></path><path d="M253.88 410.82L253.88 410.82" stroke="#132e65" stroke-width="1.5"></path><path d="M253.88 410.82L374.77 394.74" stroke="#132e65" stroke-width="1.5"></path><path d="M253.88 410.82L234.48 552.69" stroke="#132e65" stroke-width="1.5"></path><path d="M253.88 410.82L379.5 512.21" stroke="#132e65" stroke-width="1.5"></path><path d="M234.48 552.69L234.48 552.69" stroke="#132e65" stroke-width="1.5"></path><path d="M234.48 552.69L197.66 683.34" stroke="#132e65" stroke-width="1.5"></path><path d="M234.48 552.69L379.5 512.21" stroke="#132e65" stroke-width="1.5"></path><path d="M234.48 552.69L374.77 394.74" stroke="#132e65" stroke-width="1.5"></path><path d="M234.48 552.69L410.06 697.72" stroke="#132e65" stroke-width="1.5"></path><path d="M197.66 683.34L197.66 683.34" stroke="#132e65" stroke-width="1.5"></path><path d="M374.77 394.74L374.77 394.74" stroke="#132e65" stroke-width="1.5"></path><path d="M374.77 394.74L379.5 512.21" stroke="#132e65" stroke-width="1.5"></path><path d="M374.77 394.74L501.15 372.26" stroke="#132e65" stroke-width="1.5"></path><path d="M379.5 512.21L379.5 512.21" stroke="#132e65" stroke-width="1.5"></path><path d="M379.5 512.21L520.06 521.26" stroke="#132e65" stroke-width="1.5"></path><path d="M410.06 697.72L410.06 697.72" stroke="#132e65" stroke-width="1.5"></path><path d="M410.06 697.72L541.39 653.13" stroke="#132e65" stroke-width="1.5"></path><path d="M410.06 697.72L379.5 512.21" stroke="#132e65" stroke-width="1.5"></path><path d="M410.06 697.72L520.06 521.26" stroke="#132e65" stroke-width="1.5"></path><path d="M410.06 697.72L197.66 683.34" stroke="#132e65" stroke-width="1.5"></path><path d="M501.15 372.26L501.15 372.26" stroke="#132e65" stroke-width="1.5"></path><path d="M501.15 372.26L520.06 521.26" stroke="#132e65" stroke-width="1.5"></path><path d="M501.15 372.26L680.2 377.2" stroke="#132e65" stroke-width="1.5"></path><path d="M501.15 372.26L379.5 512.21" stroke="#132e65" stroke-width="1.5"></path><path d="M501.15 372.26L700.69 232.72" stroke="#132e65" stroke-width="1.5"></path><path d="M520.06 521.26L520.06 521.26" stroke="#132e65" stroke-width="1.5"></path><path d="M520.06 521.26L541.39 653.13" stroke="#132e65" stroke-width="1.5"></path><path d="M520.06 521.26L682.15 562.47" stroke="#132e65" stroke-width="1.5"></path><path d="M541.39 653.13L541.39 653.13" stroke="#132e65" stroke-width="1.5"></path><path d="M541.39 653.13L638.54 699.83" stroke="#132e65" stroke-width="1.5"></path><path d="M541.39 653.13L682.15 562.47" stroke="#132e65" stroke-width="1.5"></path><path d="M700.69 232.72L700.69 232.72" stroke="#132e65" stroke-width="1.5"></path><path d="M700.69 232.72L680.2 377.2" stroke="#132e65" stroke-width="1.5"></path><path d="M700.69 232.72L852.05 203.45" stroke="#132e65" stroke-width="1.5"></path><path d="M700.69 232.72L820.47 376.34" stroke="#132e65" stroke-width="1.5"></path><path d="M680.2 377.2L680.2 377.2" stroke="#132e65" stroke-width="1.5"></path><path d="M680.2 377.2L820.47 376.34" stroke="#132e65" stroke-width="1.5"></path><path d="M680.2 377.2L682.15 562.47" stroke="#132e65" stroke-width="1.5"></path><path d="M680.2 377.2L520.06 521.26" stroke="#132e65" stroke-width="1.5"></path><path d="M680.2 377.2L815.18 547.21" stroke="#132e65" stroke-width="1.5"></path><path d="M682.15 562.47L682.15 562.47" stroke="#132e65" stroke-width="1.5"></path><path d="M682.15 562.47L815.18 547.21" stroke="#132e65" stroke-width="1.5"></path><path d="M682.15 562.47L638.54 699.83" stroke="#132e65" stroke-width="1.5"></path><path d="M638.54 699.83L638.54 699.83" stroke="#132e65" stroke-width="1.5"></path><path d="M638.54 699.83L520.06 521.26" stroke="#132e65" stroke-width="1.5"></path><path d="M852.05 203.45L852.05 203.45" stroke="#132e65" stroke-width="1.5"></path><path d="M852.05 203.45L943.49 99.86" stroke="#132e65" stroke-width="1.5"></path><path d="M852.05 203.45L992.55 223.77" stroke="#132e65" stroke-width="1.5"></path><path d="M852.05 203.45L820.47 376.34" stroke="#132e65" stroke-width="1.5"></path><path d="M852.05 203.45L964.65 406.34" stroke="#132e65" stroke-width="1.5"></path><path d="M820.47 376.34L820.47 376.34" stroke="#132e65" stroke-width="1.5"></path><path d="M820.47 376.34L964.65 406.34" stroke="#132e65" stroke-width="1.5"></path><path d="M820.47 376.34L815.18 547.21" stroke="#132e65" stroke-width="1.5"></path><path d="M815.18 547.21L815.18 547.21" stroke="#132e65" stroke-width="1.5"></path><path d="M815.18 547.21L964.65 406.34" stroke="#132e65" stroke-width="1.5"></path><path d="M815.18 547.21L1001.65 644.84" stroke="#132e65" stroke-width="1.5"></path><path d="M1003.44 -58.41L1003.44 -58.41" stroke="#132e65" stroke-width="1.5"></path><path d="M1003.44 -58.41L1120.6 -53.84" stroke="#132e65" stroke-width="1.5"></path><path d="M1003.44 -58.41L943.49 99.86" stroke="#132e65" stroke-width="1.5"></path><path d="M1003.44 -58.41L1161.77 44.87" stroke="#132e65" stroke-width="1.5"></path><path d="M1003.44 -58.41L992.55 223.77" stroke="#132e65" stroke-width="1.5"></path><path d="M1003.44 -58.41L1301.22 -46.56" stroke="#132e65" stroke-width="1.5"></path><path d="M943.49 99.86L943.49 99.86" stroke="#132e65" stroke-width="1.5"></path><path d="M943.49 99.86L992.55 223.77" stroke="#132e65" stroke-width="1.5"></path><path d="M943.49 99.86L1101.97 252.61" stroke="#132e65" stroke-width="1.5"></path><path d="M992.55 223.77L992.55 223.77" stroke="#132e65" stroke-width="1.5"></path><path d="M992.55 223.77L1101.97 252.61" stroke="#132e65" stroke-width="1.5"></path><path d="M964.65 406.34L964.65 406.34" stroke="#132e65" stroke-width="1.5"></path><path d="M964.65 406.34L1118.36 356.46" stroke="#132e65" stroke-width="1.5"></path><path d="M964.65 406.34L1108.64 497.3" stroke="#132e65" stroke-width="1.5"></path><path d="M964.65 406.34L992.55 223.77" stroke="#132e65" stroke-width="1.5"></path><path d="M964.65 406.34L1101.97 252.61" stroke="#132e65" stroke-width="1.5"></path><path d="M1001.65 644.84L1001.65 644.84" stroke="#132e65" stroke-width="1.5"></path><path d="M1001.65 644.84L1095.21 641.08" stroke="#132e65" stroke-width="1.5"></path><path d="M1001.65 644.84L1108.64 497.3" stroke="#132e65" stroke-width="1.5"></path><path d="M1001.65 644.84L964.65 406.34" stroke="#132e65" stroke-width="1.5"></path><path d="M1001.65 644.84L1240.62 689.82" stroke="#132e65" stroke-width="1.5"></path><path d="M1001.65 644.84L1241.87 490.02" stroke="#132e65" stroke-width="1.5"></path><path d="M1120.6 -53.84L1120.6 -53.84" stroke="#132e65" stroke-width="1.5"></path><path d="M1120.6 -53.84L1161.77 44.87" stroke="#132e65" stroke-width="1.5"></path><path d="M1120.6 -53.84L1301.22 -46.56" stroke="#132e65" stroke-width="1.5"></path><path d="M1161.77 44.87L1161.77 44.87" stroke="#132e65" stroke-width="1.5"></path><path d="M1161.77 44.87L1301.22 -46.56" stroke="#132e65" stroke-width="1.5"></path><path d="M1161.77 44.87L1101.97 252.61" stroke="#132e65" stroke-width="1.5"></path><path d="M1101.97 252.61L1101.97 252.61" stroke="#132e65" stroke-width="1.5"></path><path d="M1101.97 252.61L1118.36 356.46" stroke="#132e65" stroke-width="1.5"></path><path d="M1101.97 252.61L1293.4 241.17" stroke="#132e65" stroke-width="1.5"></path><path d="M1118.36 356.46L1118.36 356.46" stroke="#132e65" stroke-width="1.5"></path><path d="M1118.36 356.46L1108.64 497.3" stroke="#132e65" stroke-width="1.5"></path><path d="M1108.64 497.3L1108.64 497.3" stroke="#132e65" stroke-width="1.5"></path><path d="M1108.64 497.3L1241.87 490.02" stroke="#132e65" stroke-width="1.5"></path><path d="M1108.64 497.3L1095.21 641.08" stroke="#132e65" stroke-width="1.5"></path><path d="M1095.21 641.08L1095.21 641.08" stroke="#132e65" stroke-width="1.5"></path><path d="M1301.22 -46.56L1301.22 -46.56" stroke="#132e65" stroke-width="1.5"></path><path d="M1301.22 -46.56L1389.27 -66.72" stroke="#132e65" stroke-width="1.5"></path><path d="M1301.22 -46.56L1423.67 63.57" stroke="#132e65" stroke-width="1.5"></path><path d="M1293.4 241.17L1293.4 241.17" stroke="#132e65" stroke-width="1.5"></path><path d="M1293.4 241.17L1308.62 361.72" stroke="#132e65" stroke-width="1.5"></path><path d="M1293.4 241.17L1450.47 206.26" stroke="#132e65" stroke-width="1.5"></path><path d="M1293.4 241.17L1400.62 402.95" stroke="#132e65" stroke-width="1.5"></path><path d="M1293.4 241.17L1118.36 356.46" stroke="#132e65" stroke-width="1.5"></path><path d="M1308.62 361.72L1308.62 361.72" stroke="#132e65" stroke-width="1.5"></path><path d="M1308.62 361.72L1400.62 402.95" stroke="#132e65" stroke-width="1.5"></path><path d="M1241.87 490.02L1241.87 490.02" stroke="#132e65" stroke-width="1.5"></path><path d="M1241.87 490.02L1308.62 361.72" stroke="#132e65" stroke-width="1.5"></path><path d="M1241.87 490.02L1400.62 402.95" stroke="#132e65" stroke-width="1.5"></path><path d="M1241.87 490.02L1118.36 356.46" stroke="#132e65" stroke-width="1.5"></path><path d="M1241.87 490.02L1240.62 689.82" stroke="#132e65" stroke-width="1.5"></path><path d="M1241.87 490.02L1095.21 641.08" stroke="#132e65" stroke-width="1.5"></path><path d="M1240.62 689.82L1240.62 689.82" stroke="#132e65" stroke-width="1.5"></path><path d="M1240.62 689.82L1095.21 641.08" stroke="#132e65" stroke-width="1.5"></path><path d="M1240.62 689.82L1452.42 639.97" stroke="#132e65" stroke-width="1.5"></path><path d="M1240.62 689.82L1108.64 497.3" stroke="#132e65" stroke-width="1.5"></path><path d="M1240.62 689.82L1546.61 690.38" stroke="#132e65" stroke-width="1.5"></path><path d="M1389.27 -66.72L1389.27 -66.72" stroke="#132e65" stroke-width="1.5"></path><path d="M1389.27 -66.72L1423.67 63.57" stroke="#132e65" stroke-width="1.5"></path><path d="M1389.27 -66.72L1594.12 -60.98" stroke="#132e65" stroke-width="1.5"></path><path d="M1389.27 -66.72L1571.72 102.66" stroke="#132e65" stroke-width="1.5"></path><path d="M1423.67 63.57L1423.67 63.57" stroke="#132e65" stroke-width="1.5"></path><path d="M1423.67 63.57L1450.47 206.26" stroke="#132e65" stroke-width="1.5"></path><path d="M1423.67 63.57L1571.72 102.66" stroke="#132e65" stroke-width="1.5"></path><path d="M1450.47 206.26L1450.47 206.26" stroke="#132e65" stroke-width="1.5"></path><path d="M1450.47 206.26L1578.72 252.68" stroke="#132e65" stroke-width="1.5"></path><path d="M1450.47 206.26L1571.72 102.66" stroke="#132e65" stroke-width="1.5"></path><path d="M1400.62 402.95L1400.62 402.95" stroke="#132e65" stroke-width="1.5"></path><path d="M1400.62 402.95L1570.31 411.09" stroke="#132e65" stroke-width="1.5"></path><path d="M1452.42 639.97L1452.42 639.97" stroke="#132e65" stroke-width="1.5"></path><path d="M1452.42 639.97L1546.61 690.38" stroke="#132e65" stroke-width="1.5"></path><path d="M1452.42 639.97L1554.64 524.69" stroke="#132e65" stroke-width="1.5"></path><path d="M1452.42 639.97L1400.62 402.95" stroke="#132e65" stroke-width="1.5"></path><path d="M1594.12 -60.98L1594.12 -60.98" stroke="#132e65" stroke-width="1.5"></path><path d="M1594.12 -60.98L1571.72 102.66" stroke="#132e65" stroke-width="1.5"></path><path d="M1571.72 102.66L1571.72 102.66" stroke="#132e65" stroke-width="1.5"></path><path d="M1571.72 102.66L1578.72 252.68" stroke="#132e65" stroke-width="1.5"></path><path d="M1578.72 252.68L1578.72 252.68" stroke="#132e65" stroke-width="1.5"></path><path d="M1578.72 252.68L1570.31 411.09" stroke="#132e65" stroke-width="1.5"></path><path d="M1570.31 411.09L1570.31 411.09" stroke="#132e65" stroke-width="1.5"></path><path d="M1570.31 411.09L1554.64 524.69" stroke="#132e65" stroke-width="1.5"></path><path d="M1554.64 524.69L1554.64 524.69" stroke="#132e65" stroke-width="1.5"></path><path d="M1554.64 524.69L1546.61 690.38" stroke="#132e65" stroke-width="1.5"></path><path d="M1554.64 524.69L1400.62 402.95" stroke="#132e65" stroke-width="1.5"></path><path d="M1546.61 690.38L1546.61 690.38" stroke="#132e65" stroke-width="1.5"></path><path d="M1546.61 690.38L1570.31 411.09" stroke="#132e65" stroke-width="1.5"></path><path d="M1546.61 690.38L1400.62 402.95" stroke="#132e65" stroke-width="1.5"></path><circle r="5" cx="-84.48" cy="399" fill="#132e65"></circle><circle r="5" cx="-86.53" cy="561.28" fill="#132e65"></circle><circle r="5" cx="-66.9" cy="680.15" fill="#132e65"></circle><circle r="5" cx="92.18" cy="358.92" fill="#132e65"></circle><circle r="5" cx="101.51" cy="511.51" fill="#132e65"></circle><circle r="5" cx="67.08" cy="709.37" fill="#132e65"></circle><circle r="5" cx="253.88" cy="410.82" fill="#132e65"></circle><circle r="5" cx="234.48" cy="552.69" fill="#132e65"></circle><circle r="5" cx="197.66" cy="683.34" fill="#132e65"></circle><circle r="5" cx="374.77" cy="394.74" fill="#132e65"></circle><circle r="5" cx="379.5" cy="512.21" fill="#132e65"></circle><circle r="5" cx="410.06" cy="697.72" fill="#132e65"></circle><circle r="5" cx="501.15" cy="372.26" fill="#132e65"></circle><circle r="5" cx="520.06" cy="521.26" fill="#132e65"></circle><circle r="5" cx="541.39" cy="653.13" fill="#132e65"></circle><circle r="5" cx="700.69" cy="232.72" fill="#132e65"></circle><circle r="5" cx="680.2" cy="377.2" fill="#132e65"></circle><circle r="5" cx="682.15" cy="562.47" fill="#132e65"></circle><circle r="5" cx="638.54" cy="699.83" fill="#132e65"></circle><circle r="5" cx="852.05" cy="203.45" fill="#132e65"></circle><circle r="5" cx="820.47" cy="376.34" fill="#132e65"></circle><circle r="5" cx="815.18" cy="547.21" fill="#132e65"></circle><circle r="5" cx="1003.44" cy="-58.41" fill="#132e65"></circle><circle r="5" cx="943.49" cy="99.86" fill="#132e65"></circle><circle r="5" cx="992.55" cy="223.77" fill="#132e65"></circle><circle r="5" cx="964.65" cy="406.34" fill="#132e65"></circle><circle r="5" cx="1001.65" cy="644.84" fill="#132e65"></circle><circle r="5" cx="1120.6" cy="-53.84" fill="#132e65"></circle><circle r="5" cx="1161.77" cy="44.87" fill="#132e65"></circle><circle r="5" cx="1101.97" cy="252.61" fill="#132e65"></circle><circle r="5" cx="1118.36" cy="356.46" fill="#132e65"></circle><circle r="5" cx="1108.64" cy="497.3" fill="#132e65"></circle><circle r="5" cx="1095.21" cy="641.08" fill="#132e65"></circle><circle r="5" cx="1301.22" cy="-46.56" fill="#132e65"></circle><circle r="5" cx="1293.4" cy="241.17" fill="#132e65"></circle><circle r="5" cx="1308.62" cy="361.72" fill="#132e65"></circle><circle r="5" cx="1241.87" cy="490.02" fill="#132e65"></circle><circle r="5" cx="1240.62" cy="689.82" fill="#132e65"></circle><circle r="5" cx="1389.27" cy="-66.72" fill="#132e65"></circle><circle r="5" cx="1423.67" cy="63.57" fill="#132e65"></circle><circle r="5" cx="1450.47" cy="206.26" fill="#132e65"></circle><circle r="5" cx="1400.62" cy="402.95" fill="#132e65"></circle><circle r="5" cx="1452.42" cy="639.97" fill="#132e65"></circle><circle r="5" cx="1594.12" cy="-60.98" fill="#132e65"></circle><circle r="5" cx="1571.72" cy="102.66" fill="#132e65"></circle><circle r="5" cx="1578.72" cy="252.68" fill="#132e65"></circle><circle r="5" cx="1570.31" cy="411.09" fill="#132e65"></circle><circle r="5" cx="1554.64" cy="524.69" fill="#132e65"></circle><circle r="5" cx="1546.61" cy="690.38" fill="#132e65"></circle><path d="M966.53 647.88L966.53 647.88" stroke="hsl(209.20000000000005, 84.5%, 42.8%)" stroke-width="1.5"></path><path d="M966.53 647.88L954.89 503.2" stroke="hsl(209.20000000000005, 84.5%, 42.8%)" stroke-width="1.5"></path><path d="M966.53 647.88L825.13 710.54" stroke="hsl(209.20000000000005, 84.5%, 42.8%)" stroke-width="1.5"></path><path d="M1160.97 404.85L1160.97 404.85" stroke="hsl(209.20000000000005, 84.5%, 42.8%)" stroke-width="1.5"></path><path d="M1160.97 404.85L1131.92 492.81" stroke="hsl(209.20000000000005, 84.5%, 42.8%)" stroke-width="1.5"></path><path d="M1160.97 404.85L1297.94 368.66" stroke="hsl(209.20000000000005, 84.5%, 42.8%)" stroke-width="1.5"></path><path d="M1160.97 404.85L1270.37 558.24" stroke="hsl(209.20000000000005, 84.5%, 42.8%)" stroke-width="1.5"></path><path d="M1160.97 404.85L966.57 406.38" stroke="hsl(209.20000000000005, 84.5%, 42.8%)" stroke-width="1.5"></path><path d="M1432.22 552.99L1432.22 552.99" stroke="hsl(209.20000000000005, 84.5%, 42.8%)" stroke-width="1.5"></path><path d="M1432.22 552.99L1441.09 709.4" stroke="hsl(209.20000000000005, 84.5%, 42.8%)" stroke-width="1.5"></path><path d="M1432.22 552.99L1270.37 558.24" stroke="hsl(209.20000000000005, 84.5%, 42.8%)" stroke-width="1.5"></path><path d="M1432.22 552.99L1564.59 661.99" stroke="hsl(209.20000000000005, 84.5%, 42.8%)" stroke-width="1.5"></path><path d="M1432.22 552.99L1595.13 487.97" stroke="hsl(209.20000000000005, 84.5%, 42.8%)" stroke-width="1.5"></path><path d="M1432.22 552.99L1455.56 344.45" stroke="hsl(209.20000000000005, 84.5%, 42.8%)" stroke-width="1.5"></path><path d="M1557.43 41.45L1557.43 41.45" stroke="hsl(209.20000000000005, 84.5%, 42.8%)" stroke-width="1.5"></path><path d="M1557.43 41.45L1582.38 -44.06" stroke="hsl(209.20000000000005, 84.5%, 42.8%)" stroke-width="1.5"></path><path d="M1557.43 41.45L1429.93 86.01" stroke="hsl(209.20000000000005, 84.5%, 42.8%)" stroke-width="1.5"></path><path d="M1557.43 41.45L1551.15 221.16" stroke="hsl(209.20000000000005, 84.5%, 42.8%)" stroke-width="1.5"></path><path d="M1595.13 487.97L1595.13 487.97" stroke="hsl(209.20000000000005, 84.5%, 42.8%)" stroke-width="1.5"></path><path d="M1595.13 487.97L1584.75 399.68" stroke="hsl(209.20000000000005, 84.5%, 42.8%)" stroke-width="1.5"></path><path d="M1595.13 487.97L1564.59 661.99" stroke="hsl(209.20000000000005, 84.5%, 42.8%)" stroke-width="1.5"></path><path d="M1595.13 487.97L1455.56 344.45" stroke="hsl(209.20000000000005, 84.5%, 42.8%)" stroke-width="1.5"></path><path d="M1595.13 487.97L1441.09 709.4" stroke="hsl(209.20000000000005, 84.5%, 42.8%)" stroke-width="1.5"></path><path d="M1595.13 487.97L1551.15 221.16" stroke="hsl(209.20000000000005, 84.5%, 42.8%)" stroke-width="1.5"></path><path d="M1564.59 661.99L1564.59 661.99" stroke="hsl(209.20000000000005, 84.5%, 42.8%)" stroke-width="1.5"></path><path d="M1564.59 661.99L1441.09 709.4" stroke="hsl(209.20000000000005, 84.5%, 42.8%)" stroke-width="1.5"></path><path d="M-56.17 504.86L-56.17 504.86" stroke="hsl(209.20000000000005, 84.5%, 42.8%)" stroke-width="1.5"></path><path d="M-56.17 504.86L52.94 488.64" stroke="hsl(209.20000000000005, 84.5%, 42.8%)" stroke-width="1.5"></path><path d="M-56.17 504.86L-59.94 707.87" stroke="hsl(209.20000000000005, 84.5%, 42.8%)" stroke-width="1.5"></path><path d="M-59.94 707.87L-59.94 707.87" stroke="hsl(209.20000000000005, 84.5%, 42.8%)" stroke-width="1.5"></path><path d="M-59.94 707.87L75.2 670.33" stroke="hsl(209.20000000000005, 84.5%, 42.8%)" stroke-width="1.5"></path><path d="M-59.94 707.87L52.94 488.64" stroke="hsl(209.20000000000005, 84.5%, 42.8%)" stroke-width="1.5"></path><path d="M-59.94 707.87L213.9 701.85" stroke="hsl(209.20000000000005, 84.5%, 42.8%)" stroke-width="1.5"></path><path d="M-59.94 707.87L209.88 562.02" stroke="hsl(209.20000000000005, 84.5%, 42.8%)" stroke-width="1.5"></path><path d="M-59.94 707.87L349.18 703.47" stroke="hsl(209.20000000000005, 84.5%, 42.8%)" stroke-width="1.5"></path><path d="M52.94 488.64L52.94 488.64" stroke="hsl(209.20000000000005, 84.5%, 42.8%)" stroke-width="1.5"></path><path d="M52.94 488.64L209.88 562.02" stroke="hsl(209.20000000000005, 84.5%, 42.8%)" stroke-width="1.5"></path><path d="M52.94 488.64L75.2 670.33" stroke="hsl(209.20000000000005, 84.5%, 42.8%)" stroke-width="1.5"></path><path d="M52.94 488.64L213.9 701.85" stroke="hsl(209.20000000000005, 84.5%, 42.8%)" stroke-width="1.5"></path><path d="M52.94 488.64L356.94 518.62" stroke="hsl(209.20000000000005, 84.5%, 42.8%)" stroke-width="1.5"></path><path d="M75.2 670.33L75.2 670.33" stroke="hsl(209.20000000000005, 84.5%, 42.8%)" stroke-width="1.5"></path><path d="M75.2 670.33L213.9 701.85" stroke="hsl(209.20000000000005, 84.5%, 42.8%)" stroke-width="1.5"></path><path d="M75.2 670.33L209.88 562.02" stroke="hsl(209.20000000000005, 84.5%, 42.8%)" stroke-width="1.5"></path><path d="M75.2 670.33L-56.17 504.86" stroke="hsl(209.20000000000005, 84.5%, 42.8%)" stroke-width="1.5"></path><path d="M75.2 670.33L349.18 703.47" stroke="hsl(209.20000000000005, 84.5%, 42.8%)" stroke-width="1.5"></path><path d="M209.88 562.02L209.88 562.02" stroke="hsl(209.20000000000005, 84.5%, 42.8%)" stroke-width="1.5"></path><path d="M209.88 562.02L213.9 701.85" stroke="hsl(209.20000000000005, 84.5%, 42.8%)" stroke-width="1.5"></path><path d="M209.88 562.02L356.94 518.62" stroke="hsl(209.20000000000005, 84.5%, 42.8%)" stroke-width="1.5"></path><path d="M213.9 701.85L213.9 701.85" stroke="hsl(209.20000000000005, 84.5%, 42.8%)" stroke-width="1.5"></path><path d="M213.9 701.85L349.18 703.47" stroke="hsl(209.20000000000005, 84.5%, 42.8%)" stroke-width="1.5"></path><path d="M213.9 701.85L356.94 518.62" stroke="hsl(209.20000000000005, 84.5%, 42.8%)" stroke-width="1.5"></path><path d="M356.94 518.62L356.94 518.62" stroke="hsl(209.20000000000005, 84.5%, 42.8%)" stroke-width="1.5"></path><path d="M356.94 518.62L535.96 505.63" stroke="hsl(209.20000000000005, 84.5%, 42.8%)" stroke-width="1.5"></path><path d="M356.94 518.62L349.18 703.47" stroke="hsl(209.20000000000005, 84.5%, 42.8%)" stroke-width="1.5"></path><path d="M349.18 703.47L349.18 703.47" stroke="hsl(209.20000000000005, 84.5%, 42.8%)" stroke-width="1.5"></path><path d="M349.18 703.47L539.36 707.23" stroke="hsl(209.20000000000005, 84.5%, 42.8%)" stroke-width="1.5"></path><path d="M349.18 703.47L209.88 562.02" stroke="hsl(209.20000000000005, 84.5%, 42.8%)" stroke-width="1.5"></path><path d="M349.18 703.47L535.96 505.63" stroke="hsl(209.20000000000005, 84.5%, 42.8%)" stroke-width="1.5"></path><path d="M535.96 505.63L535.96 505.63" stroke="hsl(209.20000000000005, 84.5%, 42.8%)" stroke-width="1.5"></path><path d="M535.96 505.63L683.57 395.57" stroke="hsl(209.20000000000005, 84.5%, 42.8%)" stroke-width="1.5"></path><path d="M535.96 505.63L539.36 707.23" stroke="hsl(209.20000000000005, 84.5%, 42.8%)" stroke-width="1.5"></path><path d="M535.96 505.63L820.1 532.47" stroke="hsl(209.20000000000005, 84.5%, 42.8%)" stroke-width="1.5"></path><path d="M535.96 505.63L815.86 342.64" stroke="hsl(209.20000000000005, 84.5%, 42.8%)" stroke-width="1.5"></path><path d="M539.36 707.23L539.36 707.23" stroke="hsl(209.20000000000005, 84.5%, 42.8%)" stroke-width="1.5"></path><path d="M539.36 707.23L356.94 518.62" stroke="hsl(209.20000000000005, 84.5%, 42.8%)" stroke-width="1.5"></path><path d="M539.36 707.23L825.13 710.54" stroke="hsl(209.20000000000005, 84.5%, 42.8%)" stroke-width="1.5"></path><path d="M539.36 707.23L213.9 701.85" stroke="hsl(209.20000000000005, 84.5%, 42.8%)" stroke-width="1.5"></path><path d="M539.36 707.23L820.1 532.47" stroke="hsl(209.20000000000005, 84.5%, 42.8%)" stroke-width="1.5"></path><path d="M683.57 395.57L683.57 395.57" stroke="hsl(209.20000000000005, 84.5%, 42.8%)" stroke-width="1.5"></path><path d="M683.57 395.57L815.86 342.64" stroke="hsl(209.20000000000005, 84.5%, 42.8%)" stroke-width="1.5"></path><path d="M683.57 395.57L820.1 532.47" stroke="hsl(209.20000000000005, 84.5%, 42.8%)" stroke-width="1.5"></path><path d="M683.57 395.57L966.57 406.38" stroke="hsl(209.20000000000005, 84.5%, 42.8%)" stroke-width="1.5"></path><path d="M683.57 395.57L954.89 503.2" stroke="hsl(209.20000000000005, 84.5%, 42.8%)" stroke-width="1.5"></path><path d="M815.86 342.64L815.86 342.64" stroke="hsl(209.20000000000005, 84.5%, 42.8%)" stroke-width="1.5"></path><path d="M815.86 342.64L966.57 406.38" stroke="hsl(209.20000000000005, 84.5%, 42.8%)" stroke-width="1.5"></path><path d="M815.86 342.64L979.49 254.08" stroke="hsl(209.20000000000005, 84.5%, 42.8%)" stroke-width="1.5"></path><path d="M820.1 532.47L820.1 532.47" stroke="hsl(209.20000000000005, 84.5%, 42.8%)" stroke-width="1.5"></path><path d="M820.1 532.47L954.89 503.2" stroke="hsl(209.20000000000005, 84.5%, 42.8%)" stroke-width="1.5"></path><path d="M820.1 532.47L825.13 710.54" stroke="hsl(209.20000000000005, 84.5%, 42.8%)" stroke-width="1.5"></path><path d="M820.1 532.47L966.53 647.88" stroke="hsl(209.20000000000005, 84.5%, 42.8%)" stroke-width="1.5"></path><path d="M820.1 532.47L815.86 342.64" stroke="hsl(209.20000000000005, 84.5%, 42.8%)" stroke-width="1.5"></path><path d="M820.1 532.47L966.57 406.38" stroke="hsl(209.20000000000005, 84.5%, 42.8%)" stroke-width="1.5"></path><path d="M825.13 710.54L825.13 710.54" stroke="hsl(209.20000000000005, 84.5%, 42.8%)" stroke-width="1.5"></path><path d="M825.13 710.54L954.89 503.2" stroke="hsl(209.20000000000005, 84.5%, 42.8%)" stroke-width="1.5"></path><path d="M979.49 254.08L979.49 254.08" stroke="hsl(209.20000000000005, 84.5%, 42.8%)" stroke-width="1.5"></path><path d="M979.49 254.08L966.57 406.38" stroke="hsl(209.20000000000005, 84.5%, 42.8%)" stroke-width="1.5"></path><path d="M979.49 254.08L1127.96 212.87" stroke="hsl(209.20000000000005, 84.5%, 42.8%)" stroke-width="1.5"></path><path d="M979.49 254.08L1134.77 95.55" stroke="hsl(209.20000000000005, 84.5%, 42.8%)" stroke-width="1.5"></path><path d="M966.57 406.38L966.57 406.38" stroke="hsl(209.20000000000005, 84.5%, 42.8%)" stroke-width="1.5"></path><path d="M966.57 406.38L954.89 503.2" stroke="hsl(209.20000000000005, 84.5%, 42.8%)" stroke-width="1.5"></path><path d="M966.57 406.38L1131.92 492.81" stroke="hsl(209.20000000000005, 84.5%, 42.8%)" stroke-width="1.5"></path><path d="M954.89 503.2L954.89 503.2" stroke="hsl(209.20000000000005, 84.5%, 42.8%)" stroke-width="1.5"></path><path d="M954.89 503.2L1131.92 492.81" stroke="hsl(209.20000000000005, 84.5%, 42.8%)" stroke-width="1.5"></path><path d="M954.89 503.2L815.86 342.64" stroke="hsl(209.20000000000005, 84.5%, 42.8%)" stroke-width="1.5"></path><path d="M954.89 503.2L1160.97 404.85" stroke="hsl(209.20000000000005, 84.5%, 42.8%)" stroke-width="1.5"></path><path d="M1134.77 95.55L1134.77 95.55" stroke="hsl(209.20000000000005, 84.5%, 42.8%)" stroke-width="1.5"></path><path d="M1134.77 95.55L1127.96 212.87" stroke="hsl(209.20000000000005, 84.5%, 42.8%)" stroke-width="1.5"></path><path d="M1134.77 95.55L1256.94 40.14" stroke="hsl(209.20000000000005, 84.5%, 42.8%)" stroke-width="1.5"></path><path d="M1134.77 95.55L1311.79 260.25" stroke="hsl(209.20000000000005, 84.5%, 42.8%)" stroke-width="1.5"></path><path d="M1134.77 95.55L1429.93 86.01" stroke="hsl(209.20000000000005, 84.5%, 42.8%)" stroke-width="1.5"></path><path d="M1127.96 212.87L1127.96 212.87" stroke="hsl(209.20000000000005, 84.5%, 42.8%)" stroke-width="1.5"></path><path d="M1127.96 212.87L1311.79 260.25" stroke="hsl(209.20000000000005, 84.5%, 42.8%)" stroke-width="1.5"></path><path d="M1131.92 492.81L1131.92 492.81" stroke="hsl(209.20000000000005, 84.5%, 42.8%)" stroke-width="1.5"></path><path d="M1131.92 492.81L1270.37 558.24" stroke="hsl(209.20000000000005, 84.5%, 42.8%)" stroke-width="1.5"></path><path d="M1131.92 492.81L1142.35 653.71" stroke="hsl(209.20000000000005, 84.5%, 42.8%)" stroke-width="1.5"></path><path d="M1142.35 653.71L1142.35 653.71" stroke="hsl(209.20000000000005, 84.5%, 42.8%)" stroke-width="1.5"></path><path d="M1142.35 653.71L1264.02 701.36" stroke="hsl(209.20000000000005, 84.5%, 42.8%)" stroke-width="1.5"></path><path d="M1142.35 653.71L1270.37 558.24" stroke="hsl(209.20000000000005, 84.5%, 42.8%)" stroke-width="1.5"></path><path d="M1142.35 653.71L966.53 647.88" stroke="hsl(209.20000000000005, 84.5%, 42.8%)" stroke-width="1.5"></path><path d="M1142.35 653.71L954.89 503.2" stroke="hsl(209.20000000000005, 84.5%, 42.8%)" stroke-width="1.5"></path><path d="M1256.94 40.14L1256.94 40.14" stroke="hsl(209.20000000000005, 84.5%, 42.8%)" stroke-width="1.5"></path><path d="M1256.94 40.14L1400.97 -52.01" stroke="hsl(209.20000000000005, 84.5%, 42.8%)" stroke-width="1.5"></path><path d="M1256.94 40.14L1429.93 86.01" stroke="hsl(209.20000000000005, 84.5%, 42.8%)" stroke-width="1.5"></path><path d="M1311.79 260.25L1311.79 260.25" stroke="hsl(209.20000000000005, 84.5%, 42.8%)" stroke-width="1.5"></path><path d="M1311.79 260.25L1297.94 368.66" stroke="hsl(209.20000000000005, 84.5%, 42.8%)" stroke-width="1.5"></path><path d="M1311.79 260.25L1433.2 228.9" stroke="hsl(209.20000000000005, 84.5%, 42.8%)" stroke-width="1.5"></path><path d="M1311.79 260.25L1455.56 344.45" stroke="hsl(209.20000000000005, 84.5%, 42.8%)" stroke-width="1.5"></path><path d="M1297.94 368.66L1297.94 368.66" stroke="hsl(209.20000000000005, 84.5%, 42.8%)" stroke-width="1.5"></path><path d="M1270.37 558.24L1270.37 558.24" stroke="hsl(209.20000000000005, 84.5%, 42.8%)" stroke-width="1.5"></path><path d="M1270.37 558.24L1264.02 701.36" stroke="hsl(209.20000000000005, 84.5%, 42.8%)" stroke-width="1.5"></path><path d="M1264.02 701.36L1264.02 701.36" stroke="hsl(209.20000000000005, 84.5%, 42.8%)" stroke-width="1.5"></path><path d="M1264.02 701.36L1441.09 709.4" stroke="hsl(209.20000000000005, 84.5%, 42.8%)" stroke-width="1.5"></path><path d="M1400.97 -52.01L1400.97 -52.01" stroke="hsl(209.20000000000005, 84.5%, 42.8%)" stroke-width="1.5"></path><path d="M1400.97 -52.01L1429.93 86.01" stroke="hsl(209.20000000000005, 84.5%, 42.8%)" stroke-width="1.5"></path><path d="M1400.97 -52.01L1582.38 -44.06" stroke="hsl(209.20000000000005, 84.5%, 42.8%)" stroke-width="1.5"></path><path d="M1400.97 -52.01L1557.43 41.45" stroke="hsl(209.20000000000005, 84.5%, 42.8%)" stroke-width="1.5"></path><path d="M1429.93 86.01L1429.93 86.01" stroke="hsl(209.20000000000005, 84.5%, 42.8%)" stroke-width="1.5"></path><path d="M1429.93 86.01L1433.2 228.9" stroke="hsl(209.20000000000005, 84.5%, 42.8%)" stroke-width="1.5"></path><path d="M1429.93 86.01L1551.15 221.16" stroke="hsl(209.20000000000005, 84.5%, 42.8%)" stroke-width="1.5"></path><path d="M1433.2 228.9L1433.2 228.9" stroke="hsl(209.20000000000005, 84.5%, 42.8%)" stroke-width="1.5"></path><path d="M1433.2 228.9L1455.56 344.45" stroke="hsl(209.20000000000005, 84.5%, 42.8%)" stroke-width="1.5"></path><path d="M1433.2 228.9L1551.15 221.16" stroke="hsl(209.20000000000005, 84.5%, 42.8%)" stroke-width="1.5"></path><path d="M1433.2 228.9L1297.94 368.66" stroke="hsl(209.20000000000005, 84.5%, 42.8%)" stroke-width="1.5"></path><path d="M1433.2 228.9L1557.43 41.45" stroke="hsl(209.20000000000005, 84.5%, 42.8%)" stroke-width="1.5"></path><path d="M1455.56 344.45L1455.56 344.45" stroke="hsl(209.20000000000005, 84.5%, 42.8%)" stroke-width="1.5"></path><path d="M1455.56 344.45L1584.75 399.68" stroke="hsl(209.20000000000005, 84.5%, 42.8%)" stroke-width="1.5"></path><path d="M1455.56 344.45L1551.15 221.16" stroke="hsl(209.20000000000005, 84.5%, 42.8%)" stroke-width="1.5"></path><path d="M1455.56 344.45L1297.94 368.66" stroke="hsl(209.20000000000005, 84.5%, 42.8%)" stroke-width="1.5"></path><path d="M1441.09 709.4L1441.09 709.4" stroke="hsl(209.20000000000005, 84.5%, 42.8%)" stroke-width="1.5"></path><path d="M1441.09 709.4L1270.37 558.24" stroke="hsl(209.20000000000005, 84.5%, 42.8%)" stroke-width="1.5"></path><path d="M1582.38 -44.06L1582.38 -44.06" stroke="hsl(209.20000000000005, 84.5%, 42.8%)" stroke-width="1.5"></path><path d="M1582.38 -44.06L1429.93 86.01" stroke="hsl(209.20000000000005, 84.5%, 42.8%)" stroke-width="1.5"></path><path d="M1582.38 -44.06L1551.15 221.16" stroke="hsl(209.20000000000005, 84.5%, 42.8%)" stroke-width="1.5"></path><path d="M1582.38 -44.06L1433.2 228.9" stroke="hsl(209.20000000000005, 84.5%, 42.8%)" stroke-width="1.5"></path><path d="M1582.38 -44.06L1256.94 40.14" stroke="hsl(209.20000000000005, 84.5%, 42.8%)" stroke-width="1.5"></path><path d="M1551.15 221.16L1551.15 221.16" stroke="hsl(209.20000000000005, 84.5%, 42.8%)" stroke-width="1.5"></path><path d="M1551.15 221.16L1584.75 399.68" stroke="hsl(209.20000000000005, 84.5%, 42.8%)" stroke-width="1.5"></path><path d="M1551.15 221.16L1311.79 260.25" stroke="hsl(209.20000000000005, 84.5%, 42.8%)" stroke-width="1.5"></path><path d="M1584.75 399.68L1584.75 399.68" stroke="hsl(209.20000000000005, 84.5%, 42.8%)" stroke-width="1.5"></path><circle r="25" cx="966.53" cy="647.88" fill="url(&quot;#SvgjsRadialGradient1530&quot;)"></circle><circle r="25" cx="1160.97" cy="404.85" fill="url(&quot;#SvgjsRadialGradient1530&quot;)"></circle><circle r="25" cx="1432.22" cy="552.99" fill="url(&quot;#SvgjsRadialGradient1530&quot;)"></circle><circle r="25" cx="1557.43" cy="41.45" fill="url(&quot;#SvgjsRadialGradient1530&quot;)"></circle><circle r="25" cx="1595.13" cy="487.97" fill="url(&quot;#SvgjsRadialGradient1530&quot;)"></circle><circle r="25" cx="1564.59" cy="661.99" fill="url(&quot;#SvgjsRadialGradient1530&quot;)"></circle><circle r="5" cx="-56.17" cy="504.86" fill="#86abcd"></circle><circle r="5" cx="-59.94" cy="707.87" fill="#86abcd"></circle><circle r="5" cx="52.94" cy="488.64" fill="#86abcd"></circle><circle r="5" cx="75.2" cy="670.33" fill="#86abcd"></circle><circle r="5" cx="209.88" cy="562.02" fill="#86abcd"></circle><circle r="5" cx="213.9" cy="701.85" fill="#86abcd"></circle><circle r="5" cx="356.94" cy="518.62" fill="#86abcd"></circle><circle r="5" cx="349.18" cy="703.47" fill="#86abcd"></circle><circle r="5" cx="535.96" cy="505.63" fill="#86abcd"></circle><circle r="5" cx="539.36" cy="707.23" fill="#86abcd"></circle><circle r="5" cx="683.57" cy="395.57" fill="#86abcd"></circle><circle r="5" cx="815.86" cy="342.64" fill="#86abcd"></circle><circle r="5" cx="820.1" cy="532.47" fill="#86abcd"></circle><circle r="5" cx="825.13" cy="710.54" fill="#86abcd"></circle><circle r="5" cx="979.49" cy="254.08" fill="#86abcd"></circle><circle r="5" cx="966.57" cy="406.38" fill="#86abcd"></circle><circle r="5" cx="954.89" cy="503.2" fill="#86abcd"></circle><circle r="5" cx="1134.77" cy="95.55" fill="#86abcd"></circle><circle r="5" cx="1127.96" cy="212.87" fill="#86abcd"></circle><circle r="5" cx="1131.92" cy="492.81" fill="#86abcd"></circle><circle r="5" cx="1142.35" cy="653.71" fill="#86abcd"></circle><circle r="5" cx="1256.94" cy="40.14" fill="#86abcd"></circle><circle r="5" cx="1311.79" cy="260.25" fill="#86abcd"></circle><circle r="5" cx="1297.94" cy="368.66" fill="#86abcd"></circle><circle r="5" cx="1270.37" cy="558.24" fill="#86abcd"></circle><circle r="5" cx="1264.02" cy="701.36" fill="#86abcd"></circle><circle r="5" cx="1400.97" cy="-52.01" fill="#86abcd"></circle><circle r="5" cx="1429.93" cy="86.01" fill="#86abcd"></circle><circle r="5" cx="1433.2" cy="228.9" fill="#86abcd"></circle><circle r="5" cx="1455.56" cy="344.45" fill="#86abcd"></circle><circle r="5" cx="1441.09" cy="709.4" fill="#86abcd"></circle><circle r="5" cx="1582.38" cy="-44.06" fill="#86abcd"></circle><circle r="5" cx="1551.15" cy="221.16" fill="#86abcd"></circle><circle r="5" cx="1584.75" cy="399.68" fill="#86abcd"></circle></g><defs><mask id="SvgjsMask1528"><rect width="1440" height="600" fill="#ffffff"></rect></mask><linearGradient x1="0%" y1="50%" x2="100%" y2="50%" gradientUnits="userSpaceOnUse" id="SvgjsLinearGradient1529"><stop stop-color="#0e2a47" offset="0"></stop><stop stop-color="rgba(13, 86, 155, 1)" offset="1"></stop></linearGradient><radialGradient id="SvgjsRadialGradient1530"><stop stop-color="#ffffff" offset="0.1"></stop><stop stop-color="rgba(13, 86, 155, 1)" offset="0.2"></stop><stop stop-color="rgba(13, 86, 155, 0)" offset="1"></stop></radialGradient></defs></svg>