<svg version="1.0" xmlns="http://www.w3.org/2000/svg" width="682.667" height="682.667" viewBox="0 0 512 512"><path d="M49.5 34.4c-39.7 9.2-60.8 53-43 89.1 7.7 15.5 21.2 27.1 38 32.7 10.1 3.3 26.9 3.3 37.4-.1 19.5-6.4 34.7-21.7 41.3-41.6 3.3-10 3.3-27 0-37C116.7 58 102.1 43 82.8 36.3c-9-3.1-24.2-4-33.3-1.9zm145.4 16.4c-13 3.4-23.9 12.4-29.9 24.6-13 26.4 1.6 58.4 29.9 65.8 6.1 1.5 17.2 1.7 140.2 1.7 85.6.1 135.6-.3 139-.9 18.7-3.5 34.2-19.7 37.2-38.9 3.7-24.5-13.1-48.6-37.2-53.1-3.4-.6-53.4-1-139-.9-123 0-134.1.2-140.2 1.7zM49.5 194.4c-39.7 9.2-60.8 53-43 89.1 7.7 15.5 21.2 27.1 38 32.7 10.1 3.3 26.9 3.3 37.4-.1 19.5-6.4 34.7-21.7 41.3-41.6 3.3-10 3.3-27 0-37-6.5-19.5-21.1-34.5-40.4-41.2-9-3.1-24.2-4-33.3-1.9zm145.4 16.4c-13 3.4-23.9 12.4-29.9 24.6-13 26.4 1.6 58.4 29.9 65.8 6.1 1.5 17.2 1.7 140.2 1.7 85.6.1 135.6-.3 139-.9 18.7-3.5 34.2-19.7 37.2-38.9 3.7-24.5-13.1-48.6-37.2-53.1-3.4-.6-53.4-1-139-.9-123 0-134.1.2-140.2 1.7zM49.5 354.4c-39.7 9.2-60.8 53-43 89.1 7.7 15.5 21.2 27.1 38 32.7 10.1 3.3 26.9 3.3 37.4-.1 19.5-6.4 34.7-21.7 41.3-41.6 3.3-10 3.3-27 0-37-6.5-19.5-21.1-34.5-40.4-41.2-9-3.1-24.2-4-33.3-1.9zm145.4 16.4c-13 3.4-23.9 12.4-29.9 24.6-13 26.4 1.6 58.4 29.9 65.8 6.1 1.5 17.2 1.7 140.2 1.7 85.6.1 135.6-.3 139-.9 18.7-3.5 34.2-19.7 37.2-38.9 3.7-24.5-13.1-48.6-37.2-53.1-3.4-.6-53.4-1-139-.9-123 0-134.1.2-140.2 1.7z"/></svg>